<mxfile host="app.diagrams.net" modified="2023-04-25T15:52:03.066Z" agent="Mozilla/5.0 (Windows NT 10.0; Win64; x64) AppleWebKit/537.36 (KHTML, like Gecko) Chrome/112.0.0.0 Safari/537.36" etag="qZDIRyggf-ifhNNUExsh" version="21.2.1" type="github">
  <diagram name="Page-1" id="74e2e168-ea6b-b213-b513-2b3c1d86103e">
    <mxGraphModel dx="1434" dy="764" grid="1" gridSize="10" guides="1" tooltips="1" connect="1" arrows="1" fold="1" page="1" pageScale="1" pageWidth="1100" pageHeight="850" background="none" math="0" shadow="0">
      <root>
        <mxCell id="0" />
        <mxCell id="1" parent="0" />
        <mxCell id="u2NoyVDMFFo2EpSreYgd-13" value="" style="edgeStyle=orthogonalEdgeStyle;rounded=0;orthogonalLoop=1;jettySize=auto;html=1;" edge="1" parent="1" source="u2NoyVDMFFo2EpSreYgd-2" target="u2NoyVDMFFo2EpSreYgd-3">
          <mxGeometry relative="1" as="geometry" />
        </mxCell>
        <mxCell id="u2NoyVDMFFo2EpSreYgd-2" value="Начало" style="ellipse;whiteSpace=wrap;html=1;" vertex="1" parent="1">
          <mxGeometry x="490" y="77" width="120" height="30" as="geometry" />
        </mxCell>
        <mxCell id="u2NoyVDMFFo2EpSreYgd-14" value="" style="edgeStyle=orthogonalEdgeStyle;rounded=0;orthogonalLoop=1;jettySize=auto;html=1;" edge="1" parent="1" source="u2NoyVDMFFo2EpSreYgd-3">
          <mxGeometry relative="1" as="geometry">
            <mxPoint x="550" y="250" as="targetPoint" />
          </mxGeometry>
        </mxCell>
        <mxCell id="u2NoyVDMFFo2EpSreYgd-3" value="Ввести список пользователей" style="shape=parallelogram;perimeter=parallelogramPerimeter;whiteSpace=wrap;html=1;fixedSize=1;" vertex="1" parent="1">
          <mxGeometry x="490" y="150" width="120" height="60" as="geometry" />
        </mxCell>
        <mxCell id="u2NoyVDMFFo2EpSreYgd-34" value="" style="edgeStyle=orthogonalEdgeStyle;rounded=0;orthogonalLoop=1;jettySize=auto;html=1;" edge="1" parent="1" source="u2NoyVDMFFo2EpSreYgd-11" target="u2NoyVDMFFo2EpSreYgd-33">
          <mxGeometry relative="1" as="geometry" />
        </mxCell>
        <mxCell id="u2NoyVDMFFo2EpSreYgd-11" value="Поприветствовать" style="whiteSpace=wrap;html=1;" vertex="1" parent="1">
          <mxGeometry x="490" y="365" width="120" height="60" as="geometry" />
        </mxCell>
        <mxCell id="u2NoyVDMFFo2EpSreYgd-30" value="" style="edgeStyle=orthogonalEdgeStyle;rounded=0;orthogonalLoop=1;jettySize=auto;html=1;" edge="1" parent="1" source="u2NoyVDMFFo2EpSreYgd-28" target="u2NoyVDMFFo2EpSreYgd-11">
          <mxGeometry relative="1" as="geometry" />
        </mxCell>
        <mxCell id="u2NoyVDMFFo2EpSreYgd-39" value="" style="edgeStyle=orthogonalEdgeStyle;rounded=0;orthogonalLoop=1;jettySize=auto;html=1;" edge="1" parent="1" source="u2NoyVDMFFo2EpSreYgd-28" target="u2NoyVDMFFo2EpSreYgd-38">
          <mxGeometry relative="1" as="geometry">
            <Array as="points">
              <mxPoint x="700" y="290" />
              <mxPoint x="700" y="620" />
              <mxPoint x="550" y="620" />
            </Array>
          </mxGeometry>
        </mxCell>
        <mxCell id="u2NoyVDMFFo2EpSreYgd-28" value="Для каждого пользователя" style="shape=hexagon;perimeter=hexagonPerimeter2;whiteSpace=wrap;html=1;fixedSize=1;" vertex="1" parent="1">
          <mxGeometry x="490" y="250" width="120" height="80" as="geometry" />
        </mxCell>
        <mxCell id="u2NoyVDMFFo2EpSreYgd-36" value="" style="edgeStyle=orthogonalEdgeStyle;rounded=0;orthogonalLoop=1;jettySize=auto;html=1;" edge="1" parent="1" source="u2NoyVDMFFo2EpSreYgd-33" target="u2NoyVDMFFo2EpSreYgd-35">
          <mxGeometry relative="1" as="geometry" />
        </mxCell>
        <mxCell id="u2NoyVDMFFo2EpSreYgd-42" style="edgeStyle=orthogonalEdgeStyle;rounded=0;orthogonalLoop=1;jettySize=auto;html=1;exitX=1;exitY=0.5;exitDx=0;exitDy=0;entryX=0;entryY=0.5;entryDx=0;entryDy=0;" edge="1" parent="1" source="u2NoyVDMFFo2EpSreYgd-33" target="u2NoyVDMFFo2EpSreYgd-28">
          <mxGeometry relative="1" as="geometry">
            <Array as="points">
              <mxPoint x="590" y="600" />
              <mxPoint x="290" y="600" />
              <mxPoint x="290" y="290" />
            </Array>
          </mxGeometry>
        </mxCell>
        <mxCell id="u2NoyVDMFFo2EpSreYgd-33" value="Нет подписки?" style="rhombus;whiteSpace=wrap;html=1;" vertex="1" parent="1">
          <mxGeometry x="510" y="495" width="80" height="80" as="geometry" />
        </mxCell>
        <mxCell id="u2NoyVDMFFo2EpSreYgd-37" style="edgeStyle=orthogonalEdgeStyle;rounded=0;orthogonalLoop=1;jettySize=auto;html=1;exitX=0.5;exitY=0;exitDx=0;exitDy=0;entryX=0;entryY=0.5;entryDx=0;entryDy=0;" edge="1" parent="1" source="u2NoyVDMFFo2EpSreYgd-35" target="u2NoyVDMFFo2EpSreYgd-28">
          <mxGeometry relative="1" as="geometry" />
        </mxCell>
        <mxCell id="u2NoyVDMFFo2EpSreYgd-35" value="Показать рекламу" style="whiteSpace=wrap;html=1;" vertex="1" parent="1">
          <mxGeometry x="330" y="505" width="120" height="60" as="geometry" />
        </mxCell>
        <mxCell id="u2NoyVDMFFo2EpSreYgd-38" value="Конец" style="ellipse;whiteSpace=wrap;html=1;" vertex="1" parent="1">
          <mxGeometry x="510" y="650" width="80" height="30" as="geometry" />
        </mxCell>
      </root>
    </mxGraphModel>
  </diagram>
</mxfile>
